<?xml version="1.0" encoding="UTF-8"?>
<!DOCTYPE svg PUBLIC "-//W3C//DTD SVG 1.0//EN" "http://www.w3.org/TR/2001/REC-SVG-20010904/DTD/svg10.dtd">
<!-- Creator: CorelDRAW 2021 (64-Bit) -->
<svg xmlns="http://www.w3.org/2000/svg" xml:space="preserve" width="137px" height="133px" version="1.0" style="shape-rendering:geometricPrecision; text-rendering:geometricPrecision; image-rendering:optimizeQuality; fill-rule:evenodd; clip-rule:evenodd"
viewBox="0 0 7.21 7.03"
 xmlns:xlink="http://www.w3.org/1999/xlink"
 xmlns:xodm="http://www.corel.com/coreldraw/odm/2003">
 <defs>
  <style type="text/css">
   <![CDATA[
    .fil0 {fill:#2F2A26;fill-rule:nonzero}
   ]]>
  </style>
 </defs>
 <g id="Capa_x0020_1">
  <metadata id="CorelCorpID_0Corel-Layer"/>
  <g id="github-seeklogo.com.svg">
   <g>
    <path class="fil0" d="M3.6 0c-1.99,0 -3.6,1.61 -3.6,3.6 0,1.6 1.03,2.95 2.46,3.42 0.18,0.04 0.25,-0.08 0.25,-0.17 0,-0.09 0,-0.37 0,-0.67 -1.01,0.22 -1.22,-0.43 -1.22,-0.43 -0.16,-0.41 -0.4,-0.52 -0.4,-0.52 -0.33,-0.23 0.03,-0.22 0.03,-0.22 0.36,0.02 0.55,0.37 0.55,0.37 0.32,0.55 0.84,0.39 1.05,0.3 0.03,-0.23 0.12,-0.39 0.23,-0.48 -0.8,-0.09 -1.65,-0.4 -1.65,-1.78 0,-0.4 0.14,-0.72 0.38,-0.97 -0.04,-0.09 -0.17,-0.46 0.03,-0.96 0,0 0.3,-0.09 0.99,0.37 0.29,-0.08 0.6,-0.12 0.9,-0.12 0.31,0 0.62,0.04 0.91,0.12 0.68,-0.46 0.99,-0.37 0.99,-0.37 0.19,0.5 0.07,0.87 0.03,0.96 0.23,0.25 0.37,0.57 0.37,0.97 0,1.38 -0.84,1.68 -1.64,1.77 0.13,0.12 0.24,0.33 0.24,0.67 0,0.48 0,0.87 0,0.99 0,0.1 0.06,0.21 0.24,0.17 1.44,-0.47 2.47,-1.82 2.47,-3.42 0,-1.99 -1.62,-3.6 -3.61,-3.6zm-2.25 5.13c-0.01,0.02 -0.04,0.03 -0.06,0.01 -0.03,-0.01 -0.04,-0.03 -0.03,-0.05 0,-0.02 0.03,-0.02 0.06,-0.01 0.02,0.01 0.04,0.04 0.03,0.05zm0.18 0.16c-0.02,0.02 -0.05,0.01 -0.08,-0.02 -0.02,-0.02 -0.02,-0.05 -0.01,-0.07 0.02,-0.02 0.05,-0.01 0.08,0.02 0.02,0.02 0.02,0.06 0.01,0.07zm0.12 0.2c-0.02,0.02 -0.06,0 -0.08,-0.03 -0.02,-0.03 -0.02,-0.07 0,-0.08 0.02,-0.02 0.06,0 0.08,0.03 0.02,0.03 0.02,0.07 0,0.08zm0.2 0.24c-0.02,0.02 -0.06,0.01 -0.09,-0.02 -0.03,-0.02 -0.04,-0.07 -0.02,-0.09 0.02,-0.02 0.06,-0.01 0.09,0.02 0.04,0.03 0.05,0.07 0.02,0.09zm0.27 0.08c-0.01,0.03 -0.05,0.04 -0.09,0.03 -0.04,-0.02 -0.07,-0.05 -0.06,-0.08 0.01,-0.03 0.05,-0.04 0.09,-0.03 0.04,0.02 0.07,0.05 0.06,0.08zm0.3 0.03c0,0.03 -0.03,0.06 -0.07,0.06 -0.05,0 -0.08,-0.03 -0.08,-0.06 0,-0.03 0.03,-0.05 0.07,-0.05 0.05,0 0.08,0.02 0.08,0.05zm0.3 -0.01c0,0.03 -0.03,0.06 -0.07,0.07 -0.04,0 -0.08,-0.01 -0.08,-0.04 -0.01,-0.03 0.02,-0.06 0.06,-0.07 0.05,-0.01 0.08,0.01 0.09,0.04z"/>
   </g>
  </g>
 </g>
</svg>
