<?xml version="1.0" encoding="UTF-8"?>
<!DOCTYPE svg PUBLIC "-//W3C//DTD SVG 1.0//EN" "http://www.w3.org/TR/2001/REC-SVG-20010904/DTD/svg10.dtd">
<!-- Creator: CorelDRAW 2021 (64-Bit) -->
<svg xmlns="http://www.w3.org/2000/svg" xml:space="preserve" width="133px" height="133px" version="1.0" style="shape-rendering:geometricPrecision; text-rendering:geometricPrecision; image-rendering:optimizeQuality; fill-rule:evenodd; clip-rule:evenodd"
viewBox="0 0 8.6 8.62"
 xmlns:xlink="http://www.w3.org/1999/xlink"
 xmlns:xodm="http://www.corel.com/coreldraw/odm/2003">
 <defs>
  <style type="text/css">
   <![CDATA[
    .fil0 {fill:#2F2A26;fill-rule:nonzero}
   ]]>
  </style>
 </defs>
 <g id="Capa_x0020_1">
  <metadata id="CorelCorpID_0Corel-Layer"/>
  <path class="fil0" d="M1.05 0c0.57,0 1.03,0.47 1.02,1.04 0,0.57 -0.47,1.03 -1.04,1.03 -0.57,0 -1.03,-0.46 -1.03,-1.03 0,-0.57 0.47,-1.04 1.05,-1.04z"/>
  <polygon class="fil0" points="1.92,2.86 1.88,8.62 0.09,8.62 0.13,2.86 "/>
  <path class="fil0" d="M6.48 2.72c1.81,0 2.13,1.19 2.12,2.74l-0.02 3.16 -1.79 0 0.02 -2.8c0.01,-0.67 0,-1.53 -0.92,-1.53 -0.93,0 -1.07,0.73 -1.08,1.48l-0.02 2.85 -1.79 0 0.04 -5.76 1.72 0 -0.01 0.79 0.03 0c0.24,-0.45 0.83,-0.93 1.7,-0.93z"/>
 </g>
</svg>
