<?xml version="1.0" encoding="utf-8"?>
<!-- Generator: Adobe Illustrator 24.1.0, SVG Export Plug-In . SVG Version: 6.00 Build 0)  -->
<svg version="1.1" id="Capa_1" xmlns="http://www.w3.org/2000/svg" xmlns:xlink="http://www.w3.org/1999/xlink" x="0px" y="0px"
	 viewBox="0 0 900 900" style="enable-background:new 0 0 900 900;" xml:space="preserve">
<style type="text/css">
	.st0{fill:#FFFFFF;}
	.st1{fill:url(#SVGID_1_);}
	.st2{fill:url(#SVGID_2_);}
	.st3{fill-rule:evenodd;clip-rule:evenodd;fill:#FFFFFF;}
</style>
<g transform="matrix(.26458 0 0 .26458 -59.753 156.95)">
	<g transform="matrix(.61632 0 0 .61632 -46.994 94.459)">
		<path class="st0" d="M2229.4,3134.4l65.7,39c276.1,163.9,592.7,250.5,915.5,250.7h0.7c991.5,0,1798.4-806.8,1798.8-1798.3
			c0.2-480.5-186.8-932.3-526.4-1272.3C4144.1,13.7,3692.6-173.6,3212-173.8c-992.2,0-1799.2,806.6-1799.5,1798.2
			c-0.1,339.8,94.9,670.7,275,957l42.8,68l-181.8,663.6L2229.4,3134.4z M1029,3826.9l307-1121.1
			c-189.4-328.1-289-700.3-288.9-1081.6c0.5-1192.9,971.3-2163.4,2164.3-2163.4c578.9,0.2,1122.3,225.6,1530.9,634.5
			c408.6,408.9,633.5,952.5,633.3,1530.7c-0.5,1192.8-971.5,2163.5-2164.2,2163.5c-0.1,0,0,0,0,0h-0.9
			c-362.2-0.1-718.1-91-1034.2-263.4L1029,3826.9z"/>
		
			<linearGradient id="SVGID_1_" gradientUnits="userSpaceOnUse" x1="339.1955" y1="4347.6538" x2="355.7013" y2="4347.6538" gradientTransform="matrix(0 -41.6418 -41.6418 0 184246.2344 17876.0762)">
			<stop  offset="0" style="stop-color:#20B038"/>
			<stop  offset="1" style="stop-color:#60D66A"/>
		</linearGradient>
		<path class="st1" d="M1121.8,1624.9c-0.1,368.1,96,727.4,278.9,1044.2l-296.4,1082.3L2211.8,3461
			c305.2,166.3,648.7,254.1,998.4,254.2h0.9c1151.5,0,2088.7-937,2089.2-2088.6c0.2-558.1-216.9-1082.8-611.4-1477.6
			C4294.5-245.9,3770-463.4,3211-463.7C2059.5-463.7,1122.2,473.2,1121.8,1624.9 M3211.1,3715.1L3211.1,3715.1L3211.1,3715.1
			C3211.1,3715.1,3211,3715.1,3211.1,3715.1"/>
		
			<linearGradient id="SVGID_2_" gradientUnits="userSpaceOnUse" x1="341.3444" y1="4349.7979" x2="357.8502" y2="4349.7979" gradientTransform="matrix(0 -43.1345 -43.1345 0 190828.5 18550.6387)">
			<stop  offset="0" style="stop-color:#F9F9F9"/>
			<stop  offset="1" style="stop-color:#FFFFFF"/>
		</linearGradient>
		<path class="st2" d="M1047.2,1624.3c-0.1,381.3,99.5,753.5,288.9,1081.6l-307.1,1121l1147.3-300.8
			c316.1,172.4,672,263.2,1034.2,263.4h0.9c1192.7,0,2163.7-970.7,2164.2-2163.5c0.2-578.1-224.7-1121.7-633.3-1530.7
			c-408.6-408.9-952-634.3-1530.9-634.5C2018.4-539.2,1047.6,431.3,1047.2,1624.3 M1730.3,2649.4l-42.8-68
			c-180.1-286.3-275.1-617.2-275-957c0.4-991.5,807.3-1798.2,1799.5-1798.2c480.5,0.2,932.1,187.5,1271.8,527.4
			c339.6,339.9,526.5,791.7,526.4,1272.2c-0.4,991.5-807.4,1798.3-1798.8,1798.3h-0.7c-322.8-0.2-639.4-86.8-915.5-250.7l-65.7-39
			l-680.9,178.5L1730.3,2649.4z M3211.4,3789.5L3211.4,3789.5L3211.4,3789.5C3211.4,3789.5,3211.4,3789.5,3211.4,3789.5"/>
		<path class="st3" d="M2662.2,719.4c-40.5-90.1-83.1-91.9-121.7-93.4c-31.5-1.3-67.6-1.3-103.6-1.3c-36.1,0-94.7,13.5-144.2,67.6
			c-49.6,54.1-189.3,184.9-189.3,451c0,266.1,193.8,523.2,220.8,559.3c27,36,374.1,599.5,923.7,816.2
			c456.8,180.1,549.8,144.3,648.9,135.3c99.1-9,319.9-130.8,365-257c45.1-126.3,45.1-234.5,31.6-257.1
			c-13.5-22.5-49.6-36.1-103.7-63.1c-54.1-27-319.9-157.9-369.5-175.9c-49.6-18-85.6-27-121.7,27.1
			c-36,54.1-139.6,175.8-171.2,211.9c-31.5,36.1-63.1,40.6-117.2,13.6c-54.1-27.1-228.3-84.2-434.9-268.4
			c-160.8-143.3-269.3-320.3-300.8-374.5c-31.5-54.1-3.4-83.4,23.7-110.3c24.3-24.2,54.1-63.1,81.1-94.7c27-31.6,36-54.1,54-90.2
			c18-36.1,9-67.7-4.5-94.7C2815.3,1093.7,2710.2,826.3,2662.2,719.4"/>
	</g>
</g>
</svg>
