<?xml version="1.0" standalone="no"?>
<!DOCTYPE svg PUBLIC "-//W3C//DTD SVG 20010904//EN"
 "http://www.w3.org/TR/2001/REC-SVG-20010904/DTD/svg10.dtd">
<svg version="1.0" xmlns="http://www.w3.org/2000/svg"
 width="428.000000pt" height="621.000000pt" viewBox="0 0 428.000000 621.000000"
 preserveAspectRatio="xMidYMid meet">

<g transform="translate(0.000000,621.000000) scale(0.100000,-0.100000)"
fill="#000000" stroke="none">
<path d="M3350 5909 c-30 -16 -65 -40 -79 -52 -38 -35 -122 -153 -192 -270
-79 -134 -110 -172 -160 -197 -55 -29 -154 -27 -251 5 -165 54 -233 65 -403
65 -306 0 -680 -57 -833 -128 -19 -9 -37 -11 -42 -6 -5 5 -36 63 -68 129 -110
223 -235 385 -334 436 -87 45 -199 17 -261 -64 -58 -76 -143 -337 -178 -547
-5 -30 -14 -80 -19 -110 -13 -74 -14 -355 -1 -405 5 -22 14 -56 19 -76 5 -20
20 -60 33 -90 21 -46 24 -68 23 -149 -1 -52 -9 -138 -17 -190 -9 -52 -20 -144
-26 -205 -6 -60 -13 -135 -17 -165 -8 -77 -10 -119 -12 -245 l-2 -111 -152
-73 c-84 -40 -159 -80 -165 -89 -16 -20 -17 -74 -1 -90 23 -23 69 -12 192 49
69 33 130 58 136 54 5 -3 10 -21 10 -39 0 -24 -9 -41 -36 -67 -34 -32 -136
-148 -211 -242 -53 -65 -36 -127 35 -127 24 0 37 8 59 38 15 20 37 46 48 58
11 11 47 53 80 92 62 73 81 84 92 55 4 -10 9 -20 12 -23 15 -13 71 -90 71 -97
0 -4 -20 -34 -43 -65 -124 -168 -167 -237 -167 -268 0 -38 22 -59 63 -60 28 0
40 14 197 233 30 43 58 77 63 77 5 0 29 -15 55 -32 69 -49 260 -142 330 -163
39 -11 25 -33 -36 -52 -245 -76 -465 -264 -526 -451 -42 -125 5 -303 115 -442
44 -56 149 -160 161 -160 4 0 13 -6 20 -13 29 -28 76 -52 143 -73 38 -12 73
-28 76 -36 10 -19 29 -278 29 -388 0 -129 -18 -165 -122 -242 -89 -67 -111
-94 -129 -165 -23 -93 18 -200 87 -229 77 -32 259 0 338 61 51 39 117 65 167
65 26 0 91 -10 145 -22 88 -20 127 -22 359 -22 200 0 282 4 355 17 52 9 107
17 121 17 l26 0 -1 -88 c0 -72 4 -95 22 -131 60 -115 183 -151 309 -92 67 32
175 128 245 218 35 45 45 53 65 48 13 -3 54 0 91 6 329 54 534 192 631 421 23
56 26 76 26 178 0 97 -3 121 -21 155 -43 82 -154 110 -238 61 -32 -18 -52 -42
-81 -97 -40 -74 -163 -209 -189 -209 -12 0 -13 44 -9 263 3 144 9 267 14 273
5 6 27 16 48 23 91 27 174 123 217 251 25 74 23 234 -3 305 -48 132 -159 279
-265 351 -24 16 -45 31 -48 34 -24 27 -214 120 -295 145 -46 14 -71 27 -73 38
-3 14 5 17 45 17 88 1 228 39 295 80 75 47 87 47 149 1 30 -22 88 -80 130
-128 90 -105 171 -173 204 -173 32 0 55 25 55 61 0 25 -25 54 -160 187 -145
144 -160 162 -160 193 1 23 10 45 30 68 l30 35 34 -20 c19 -10 73 -43 121 -73
130 -80 198 -80 198 -1 0 34 -17 53 -69 75 -56 23 -164 97 -164 112 0 7 9 17
20 23 11 6 27 24 36 41 11 21 21 29 32 26 9 -3 47 -17 85 -30 101 -37 157 -43
188 -19 52 42 17 112 -57 112 -24 0 -45 4 -48 9 -3 5 -21 12 -39 15 -69 13
-72 21 -47 122 41 162 28 378 -35 599 -28 98 -76 261 -102 344 l-25 83 20 28
c12 15 29 54 39 86 38 123 13 735 -37 918 -53 191 -127 308 -223 355 -59 29
-102 26 -167 -10z m155 -150 c39 -37 60 -67 76 -108 32 -86 66 -255 74 -366 4
-55 9 -119 10 -142 2 -22 7 -110 11 -195 7 -173 -3 -247 -41 -300 -13 -18 -32
-43 -40 -55 -15 -20 -15 -28 4 -100 11 -43 36 -127 56 -188 20 -60 42 -135 50
-165 8 -30 26 -100 40 -155 31 -122 42 -281 26 -384 -20 -126 -77 -227 -240
-419 -77 -90 -194 -166 -291 -187 -19 -4 -41 -11 -50 -16 -8 -4 -78 -22 -155
-39 -179 -41 -265 -66 -342 -101 -72 -33 -79 -51 -42 -113 21 -36 48 -49 124
-61 78 -13 191 -36 225 -47 51 -15 224 -99 232 -112 20 -29 8 -34 -44 -19 -53
15 -103 24 -233 44 -81 12 -231 46 -260 59 -17 7 -169 43 -243 56 -15 3 -28
17 -38 40 -8 19 -19 32 -25 29 -5 -4 -8 -3 -7 2 2 4 -1 9 -7 11 -15 5 -34 44
-35 70 0 28 27 82 41 82 6 0 8 4 5 9 -3 5 1 11 9 15 17 6 22 96 6 96 -5 0 -11
10 -13 23 -2 12 -9 22 -17 22 -8 0 -16 6 -19 14 -3 8 0 11 7 7 19 -12 12 0
-11 20 -22 19 -23 19 -8 -1 10 -15 11 -17 0 -8 -24 22 -21 65 10 115 35 57 37
78 9 109 -11 13 -17 17 -13 9 7 -13 5 -13 -9 -1 -18 15 -23 26 -7 16 20 -12 9
12 -15 35 -28 26 -33 67 -10 76 8 4 30 -1 49 -10 19 -9 37 -16 40 -16 3 0 30
-11 58 -25 114 -55 222 -51 316 12 113 77 155 219 97 333 -27 53 -53 68 -100
56 -45 -11 -51 -46 -21 -109 l26 -56 -19 -43 c-29 -67 -85 -108 -146 -108 -32
0 -97 23 -187 65 -119 55 -172 69 -236 61 -55 -6 -124 -26 -165 -47 -55 -30
-185 -69 -229 -69 -68 0 -142 34 -169 76 -20 33 -20 37 -5 74 19 47 10 79 -27
99 -59 31 -100 -21 -99 -128 0 -101 44 -171 137 -219 44 -23 62 -26 150 -25
82 0 109 4 150 23 28 12 59 24 70 25 18 2 20 -2 17 -32 -3 -24 2 -43 16 -63
33 -44 36 -73 13 -138 -11 -32 -17 -70 -14 -83 7 -35 33 -89 41 -89 14 0 34
-82 23 -93 -6 -6 -11 -19 -11 -28 0 -10 -5 -19 -11 -21 -31 -10 -27 -152 6
-185 22 -21 14 -26 -52 -29 -56 -2 -207 -35 -248 -54 -31 -14 -191 -70 -199
-70 -4 0 -22 -7 -39 -15 -62 -28 -213 -66 -307 -77 -65 -8 -99 -16 -107 -27
-21 -27 -15 -102 16 -207 47 -158 48 -165 12 -192 -49 -36 -38 -112 16 -112
32 -1 99 -36 121 -65 33 -41 28 -81 -13 -122 -35 -35 -37 -36 -95 -30 -93 8
-242 100 -309 191 -19 25 -38 46 -41 46 -4 0 -22 29 -40 65 -24 48 -34 82 -38
134 -4 66 -3 72 33 133 98 163 270 305 405 333 19 4 40 11 45 15 10 8 150 42
245 60 30 5 79 15 108 20 127 24 158 33 175 47 21 20 22 51 2 80 -14 20 -23
21 -163 21 -110 -1 -163 3 -212 16 -76 20 -147 43 -175 56 -11 5 -60 25 -110
46 -49 21 -92 40 -95 44 -3 3 -27 19 -55 35 -112 64 -220 175 -258 266 -19 47
-36 127 -43 208 -7 74 19 489 41 656 7 61 19 183 26 273 l12 163 -27 52 c-14
29 -35 90 -47 136 -41 163 -10 467 77 751 44 143 63 187 93 222 38 46 56 51
99 29 78 -40 171 -170 297 -417 102 -199 118 -208 252 -139 126 64 493 119
798 119 167 0 178 -2 370 -60 128 -38 258 -39 330 -2 80 42 145 116 215 243
96 174 195 295 242 295 11 0 44 -23 73 -51z m-1249 -2299 c11 0 13 -9 8 -38
-5 -33 -1 -47 35 -102 23 -35 41 -68 41 -74 0 -6 -9 -29 -21 -50 -25 -47 -27
-98 -5 -129 80 -108 80 -109 31 -187 -43 -66 -44 -90 -4 -151 24 -38 29 -55
25 -82 -7 -42 -17 -69 -32 -84 -6 -6 -14 -30 -18 -53 -7 -46 7 -81 48 -119 34
-32 35 -68 2 -77 -43 -10 -61 -1 -58 30 2 18 -6 40 -22 61 -30 39 -32 59 -11
108 21 50 19 112 -6 190 l-21 67 21 60 c23 67 28 152 8 172 -26 27 -47 67 -58
112 -11 43 -10 48 21 93 37 56 35 81 -10 155 -39 63 -40 118 -2 103 7 -3 20
-5 28 -5z m-100 -18 c-4 -11 8 -45 29 -85 42 -79 43 -99 8 -151 -36 -51 -36
-105 0 -167 36 -61 36 -134 2 -204 -31 -63 -31 -74 1 -138 45 -87 46 -101 17
-184 l-25 -74 21 -56 c11 -30 21 -57 21 -59 0 -2 -13 -4 -28 -4 -25 0 -31 6
-42 41 -8 22 -18 43 -23 46 -7 4 -8 -1 -3 -13 4 -10 10 -31 13 -46 5 -26 3
-28 -26 -28 -25 0 -32 5 -37 28 -3 15 -8 33 -10 41 -3 8 9 40 25 72 48 92 49
123 7 217 -20 44 -36 89 -36 101 0 12 11 43 25 69 35 66 33 114 -10 182 -40
63 -42 81 -15 150 11 28 20 62 20 76 0 14 -9 42 -20 64 -26 51 -26 106 -1 119
24 13 31 5 31 -36 0 -19 7 -57 16 -84 15 -46 15 -54 0 -107 -22 -78 -19 -108
4 -52 23 55 25 133 5 190 -8 23 -15 58 -15 76 0 30 3 34 26 34 20 0 24 -4 20
-18z m104 -513 c0 -32 -4 -61 -10 -64 -5 -3 -10 -14 -10 -25 0 -10 -6 -20 -14
-23 -10 -4 -9 5 5 33 19 39 21 129 4 162 -3 7 1 4 9 -6 11 -13 16 -40 16 -77z
m-20 -238 c0 -9 5 -22 12 -29 6 -6 9 -15 5 -18 -4 -4 -14 9 -22 29 -18 43 -19
50 -5 42 6 -3 10 -14 10 -24z m-133 -83 c-3 -8 -6 -5 -6 6 -1 11 2 17 5 13 3
-3 4 -12 1 -19z m0 -70 c-3 -8 -6 -5 -6 6 -1 11 2 17 5 13 3 -3 4 -12 1 -19z
m146 -13 c-3 -9 -8 -14 -10 -11 -3 3 -2 9 2 15 9 16 15 13 8 -4z m-199 -3 c3
-5 -1 -20 -8 -33 -23 -44 -27 -79 -15 -119 7 -22 10 -42 7 -45 -3 -3 -70 2
-149 11 -79 9 -173 19 -209 23 -55 5 -65 9 -65 25 0 16 21 26 114 57 115 38
154 49 246 74 61 16 72 17 79 7z m412 -2 c32 -6 68 -15 79 -19 43 -19 295 -81
326 -81 41 0 64 -13 57 -32 -6 -14 -141 -40 -308 -58 -52 -6 -111 -13 -130
-16 -44 -7 -55 5 -63 64 -3 24 -14 54 -25 65 -28 32 -33 54 -16 72 9 8 17 15
18 15 1 0 29 -5 62 -10z m-236 -57 c-11 -17 -11 -17 -6 0 3 10 6 24 7 30 0 9
2 9 5 0 3 -7 0 -20 -6 -30z m140 -36 c0 -5 -4 -5 -10 -2 -5 3 -10 14 -10 23 0
15 2 15 10 2 5 -8 10 -19 10 -23z m1005 -34 c74 -75 140 -168 150 -213 4 -17
11 -32 16 -35 11 -8 12 -182 0 -189 -4 -3 -11 -19 -14 -36 -9 -40 -50 -104
-84 -128 -58 -41 -122 -57 -233 -56 -96 0 -111 3 -170 31 -66 30 -120 80 -120
108 0 41 160 65 290 45 74 -11 82 -11 100 5 45 41 10 115 -53 115 -49 0 -71
28 -62 77 9 52 33 130 55 178 29 63 39 108 33 138 -9 45 18 33 92 -40z m-1138
5 c-3 -7 -5 -2 -5 12 0 14 2 19 5 13 2 -7 2 -19 0 -25z m913 -102 c0 -21 -27
-81 -42 -93 -40 -30 -155 -53 -345 -68 -109 -9 -214 -18 -233 -21 -146 -21
-735 -31 -875 -15 -133 16 -345 63 -371 83 -13 9 -40 96 -32 103 5 5 222 -18
363 -39 214 -32 454 -62 550 -68 48 -4 367 13 433 22 39 6 107 15 150 21 107
14 325 59 337 69 9 7 34 15 58 19 4 0 7 -5 7 -13z m-1695 -291 c44 -8 110 -20
148 -25 91 -13 684 -13 822 1 253 24 407 34 412 26 3 -5 -5 -19 -17 -32 -45
-48 -34 -170 22 -225 15 -16 28 -32 28 -37 0 -16 -127 -84 -221 -118 -163 -59
-309 -78 -559 -73 -204 5 -248 11 -375 53 -46 15 -117 47 -125 56 -3 3 -25 18
-50 32 -66 38 -96 75 -104 126 -9 59 -30 102 -70 142 -19 19 -37 49 -41 68 -7
33 -7 33 21 28 16 -3 65 -13 109 -22z m1581 -370 c19 -8 75 -17 125 -21 49 -4
91 -10 93 -13 3 -6 -8 -269 -18 -451 -3 -52 -13 -121 -21 -154 -31 -118 -115
-261 -247 -418 -95 -113 -154 -159 -212 -165 -40 -5 -48 -2 -77 26 -30 30 -31
35 -27 99 3 55 11 82 47 152 24 47 56 101 72 121 49 63 32 118 -37 119 -37 0
-64 -27 -114 -113 -34 -59 -38 -62 -76 -63 -21 -1 -77 -9 -124 -18 -234 -44
-542 -42 -775 5 -165 33 -207 24 -399 -88 -74 -43 -147 -54 -176 -28 -44 40
-13 119 66 169 146 92 188 213 164 471 -5 61 -13 149 -16 197 l-7 87 34 20
c19 11 39 25 46 30 15 13 40 14 45 2 5 -13 143 -100 178 -113 32 -11 38 -34
20 -68 -16 -30 -1 -68 32 -85 57 -28 207 -48 373 -49 328 -2 573 5 626 19 78
21 94 42 92 120 -2 58 0 64 20 70 41 11 169 80 193 104 13 13 24 30 24 37 0
18 32 18 76 -1z m-449 -211 c-9 -9 -28 6 -21 18 4 6 10 6 17 -1 6 -6 8 -13 4
-17z m1218 -120 c45 -48 45 -139 1 -226 -33 -66 -131 -173 -196 -216 -158
-103 -211 -127 -342 -156 -36 -8 -36 8 -3 73 14 26 35 74 48 106 21 54 26 59
95 96 40 21 92 52 116 69 49 33 120 132 138 192 13 46 59 88 94 88 14 0 36
-12 49 -26z"/>
<path d="M2475 4454 c-14 -15 -25 -33 -25 -39 0 -29 147 -145 248 -196 158
-81 347 -112 530 -87 120 17 152 32 152 73 0 13 -8 33 -19 46 -18 23 -18 23
-119 9 -251 -33 -449 22 -640 177 -62 50 -93 54 -127 17z"/>
<path d="M1830 4444 c-194 -140 -511 -182 -788 -103 -38 10 -46 10 -60 -4 -18
-19 -20 -80 -2 -102 26 -32 156 -50 355 -50 224 0 309 17 464 93 148 71 184
114 145 170 -21 30 -69 28 -114 -4z"/>
<path d="M2100 3079 c0 -14 47 -88 73 -114 13 -14 -12 36 -29 55 -7 8 -20 29
-28 45 -9 17 -16 23 -16 14z"/>
<path d="M2150 2845 c-12 -19 -20 -40 -18 -46 2 -5 13 10 26 35 26 55 22 60
-8 11z"/>
<path d="M2131 2705 c0 -5 11 -30 24 -55 13 -25 24 -40 24 -35 0 6 -11 30 -24
55 -13 25 -24 41 -24 35z"/>
<path d="M2181 2584 c0 -11 3 -14 6 -6 3 7 2 16 -1 19 -3 4 -6 -2 -5 -13z"/>
<path d="M2144 2464 c-8 -20 -13 -39 -10 -42 3 -3 6 -3 6 0 0 3 7 22 15 42 8
20 13 36 10 36 -3 0 -13 -16 -21 -36z"/>
<path d="M2120 1825 c0 -36 -15 -46 -38 -23 -20 20 -27 0 -7 -22 17 -18 17
-21 1 -46 -20 -29 -14 -43 9 -24 12 10 19 10 27 2 23 -23 28 -11 28 68 0 47
-4 80 -10 80 -5 0 -10 -16 -10 -35z"/>
<path d="M2180 1780 c0 -47 4 -80 10 -80 6 0 10 33 10 80 0 47 -4 80 -10 80
-6 0 -10 -33 -10 -80z"/>
<path d="M2392 1823 c-8 -18 -9 -30 -2 -37 5 -5 10 -25 10 -42 0 -18 5 -36 10
-39 6 -4 10 10 10 34 0 27 5 43 18 51 16 10 16 10 0 20 -10 6 -18 18 -18 25 0
24 -14 17 -28 -12z"/>
<path d="M1939 1789 c-31 -31 -8 -89 36 -89 50 0 73 66 33 94 -30 21 -44 20
-69 -5z m59 -31 c-2 -15 -10 -23 -23 -23 -13 0 -21 8 -23 23 -3 18 1 22 23 22
22 0 26 -4 23 -22z"/>
<path d="M2243 1761 c2 -42 5 -47 31 -53 37 -8 50 -3 66 28 11 20 11 28 0 49
-11 21 -20 25 -56 23 l-43 -1 2 -46z m72 -1 c0 -29 -32 -41 -41 -16 -9 24 4
48 23 44 12 -2 18 -12 18 -28z"/>
</g>
</svg>
